<svg width="28" height="28" viewBox="0 0 28 28" fill="none" xmlns="http://www.w3.org/2000/svg">
<path d="M5.8335 14.8862C5.8335 13.3022 5.8335 12.5101 6.1537 11.8139C6.47391 11.1177 7.07526 10.6023 8.27796 9.5714L9.44462 8.5714C11.6185 6.70809 12.7054 5.77643 14.0002 5.77643C15.2949 5.77643 16.3818 6.70809 18.5557 8.5714L19.7224 9.5714C20.9251 10.6023 21.5264 11.1177 21.8466 11.8139C22.1668 12.5101 22.1668 13.3022 22.1668 14.8862V19.8333C22.1668 22.0332 22.1668 23.1332 21.4834 23.8166C20.8 24.5 19.7001 24.5 17.5002 24.5H10.5002C8.30028 24.5 7.20033 24.5 6.51691 23.8166C5.8335 23.1332 5.8335 22.0332 5.8335 19.8333V14.8862Z" stroke="#00B929" stroke-width="2"/>
<path d="M16.9168 24.5V18.5C16.9168 17.9477 16.4691 17.5 15.9168 17.5H12.0835C11.5312 17.5 11.0835 17.9477 11.0835 18.5V24.5" stroke="#00B929" stroke-width="2" stroke-linecap="round" stroke-linejoin="round"/>
</svg>
