<svg width="44" height="44" viewBox="0 0 44 44" fill="none" xmlns="http://www.w3.org/2000/svg">
<circle cx="22" cy="22" r="22" fill="#48D15D"/>
<circle cx="22" cy="22" r="21.5" stroke="black" stroke-opacity="0.15"/>
<path d="M22 32.6667L12.013 20.183C11.6805 19.7673 11.5143 19.5595 11.4696 19.309C11.4249 19.0586 11.5091 18.8061 11.6774 18.3011L13.0883 14.0684C13.5283 12.7484 13.7483 12.0884 14.2721 11.7109C14.7959 11.3333 15.4916 11.3333 16.883 11.3333H27.117C28.5084 11.3333 29.2041 11.3333 29.7279 11.7109C30.2517 12.0884 30.4717 12.7484 30.9117 14.0684L32.3226 18.3011C32.4909 18.8061 32.5751 19.0586 32.5304 19.309C32.4857 19.5595 32.3195 19.7673 31.987 20.183L22 32.6667ZM22 32.6667L26.6667 18M22 32.6667L17.3333 18M32 19.3333L26.6667 18M26.6667 18L24.6667 12.6667M26.6667 18H17.3333M19.3333 12.6667L17.3333 18M17.3333 18L12 19.3333" stroke="#F6F6F7" stroke-width="2" stroke-linecap="round"/>
</svg>
