<svg width="44" height="44" viewBox="0 0 44 44" fill="none" xmlns="http://www.w3.org/2000/svg">
<circle cx="22" cy="22" r="22" fill="#09A86F"/>
<circle cx="22" cy="22" r="21.5" stroke="black" stroke-opacity="0.15"/>
<path d="M12.9536 13.3053C12.9536 12.637 13.4719 12.0952 14.1112 12.0952H22.2146C22.854 12.0952 23.3722 12.637 23.3722 13.3053V32.6667H12.9536V13.3053Z" stroke="#F6F6F7" stroke-width="2" stroke-linecap="round" stroke-linejoin="round"/>
<path d="M23.3721 21.2381H29.1602V30.2606C29.1602 31.5895 30.1967 32.6667 31.4754 32.6667C32.7541 32.6667 33.7907 31.5895 33.7907 30.2606V18.2306M33.7907 18.2306V14.6215L32.0542 13.0175M33.7907 18.2306H32.0542V13.0175M28.5814 9.80951L32.0542 13.0175" stroke="#F6F6F7" stroke-width="2" stroke-linecap="round" stroke-linejoin="round"/>
<path d="M25.6044 32.6667H10.7207" stroke="#F6F6F7" stroke-width="2" stroke-linecap="round" stroke-linejoin="round"/>
<path d="M19.6511 16.6667H16.6743" stroke="#F6F6F7" stroke-width="2" stroke-linecap="round" stroke-linejoin="round"/>
</svg>
