<svg width="44" height="44" viewBox="0 0 44 44" fill="none" xmlns="http://www.w3.org/2000/svg">
<circle cx="22" cy="22" r="22" fill="#91DB34"/>
<circle cx="22" cy="22" r="21.5" stroke="black" stroke-opacity="0.15"/>
<path d="M24.5714 12.8571H19.4286C15.792 12.8571 13.9737 12.8571 12.844 14.0048C11.7143 15.1525 11.7143 16.9996 11.7143 20.6939V23.3061C11.7143 27.0004 11.7143 28.8475 12.844 29.9952C13.9737 31.1429 15.792 31.1429 19.4286 31.1429H24.5714C28.208 31.1429 30.0262 31.1429 31.156 29.9952C32.2857 28.8475 32.2857 27.0004 32.2857 23.3061V20.6939C32.2857 16.9996 32.2857 15.1525 31.156 14.0048C30.0262 12.8571 28.208 12.8571 24.5714 12.8571Z" stroke="#F6F6F7" stroke-width="2"/>
<path d="M16.2857 17.4286H19.7143" stroke="#F6F6F7" stroke-width="2" stroke-linecap="round"/>
<path d="M25.4286 24.5714V24C25.4286 23.0572 25.4286 22.5858 25.7215 22.2929C26.0144 22 26.4858 22 27.4286 22H30.2857C31.2285 22 31.6999 22 31.9928 22.2929C32.2857 22.5858 32.2857 23.0572 32.2857 24V24.5714C32.2857 25.5142 32.2857 25.9856 31.9928 26.2785C31.6999 26.5714 31.2285 26.5714 30.2857 26.5714H27.4286C26.4858 26.5714 26.0144 26.5714 25.7215 26.2785C25.4286 25.9856 25.4286 25.5142 25.4286 24.5714Z" stroke="#F6F6F7" stroke-width="2"/>
</svg>
