<svg width="19" height="21" viewBox="0 0 19 21" fill="none" xmlns="http://www.w3.org/2000/svg">
<path d="M9.56526 19.4719L10.0212 20.3619H10.0212L9.56526 19.4719ZM8.76808 19.4719L9.22406 18.5819L8.76808 19.4719ZM16.3333 9.16667C16.3333 11.764 14.9933 13.8906 13.358 15.5194C11.7243 17.1465 9.88406 18.1849 9.10927 18.5819L10.0212 20.3619C10.8848 19.9194 12.9286 18.7698 14.7694 16.9364C16.6085 15.1046 18.3333 12.4983 18.3333 9.16667H16.3333ZM9.16667 2C13.1247 2 16.3333 5.20863 16.3333 9.16667H18.3333C18.3333 4.10406 14.2293 0 9.16667 0V2ZM2 9.16667C2 5.20863 5.20863 2 9.16667 2V0C4.10406 0 0 4.10406 0 9.16667H2ZM9.22406 18.5819C8.44927 18.1849 6.60901 17.1465 4.97533 15.5194C3.34004 13.8906 2 11.764 2 9.16667H0C0 12.4983 1.72481 15.1046 3.56397 16.9364C5.40474 18.7698 7.44851 19.9194 8.31209 20.3619L9.22406 18.5819ZM9.10927 18.5819C9.12162 18.5756 9.14176 18.5693 9.16667 18.5693C9.19157 18.5693 9.21172 18.5756 9.22406 18.5819L8.31209 20.3619C8.85191 20.6384 9.48143 20.6384 10.0212 20.3619L9.10927 18.5819ZM11.6667 9.16667C11.6667 10.5474 10.5474 11.6667 9.16667 11.6667V13.6667C11.6519 13.6667 13.6667 11.6519 13.6667 9.16667H11.6667ZM9.16667 6.66667C10.5474 6.66667 11.6667 7.78595 11.6667 9.16667H13.6667C13.6667 6.68139 11.6519 4.66667 9.16667 4.66667V6.66667ZM6.66667 9.16667C6.66667 7.78595 7.78595 6.66667 9.16667 6.66667V4.66667C6.68139 4.66667 4.66667 6.68139 4.66667 9.16667H6.66667ZM9.16667 11.6667C7.78595 11.6667 6.66667 10.5474 6.66667 9.16667H4.66667C4.66667 11.6519 6.68139 13.6667 9.16667 13.6667V11.6667Z" fill="#959AA3"/>
</svg>
