<svg width="28" height="28" viewBox="0 0 28 28" fill="none" xmlns="http://www.w3.org/2000/svg">
<path d="M14.3988 23.1385L14.8547 24.0285H14.8547L14.3988 23.1385ZM13.6016 23.1385L14.0576 22.2486L13.6016 23.1385ZM21.1668 12.8333C21.1668 15.4307 19.8268 17.5573 18.1915 19.186C16.5578 20.8131 14.7176 21.8516 13.9428 22.2486L14.8547 24.0285C15.7183 23.5861 17.7621 22.4365 19.6029 20.6031C21.442 18.7713 23.1668 16.165 23.1668 12.8333H21.1668ZM14.0002 5.66667C17.9582 5.66667 21.1668 8.87529 21.1668 12.8333H23.1668C23.1668 7.77072 19.0628 3.66667 14.0002 3.66667V5.66667ZM6.8335 12.8333C6.8335 8.87529 10.0421 5.66667 14.0002 5.66667V3.66667C8.93755 3.66667 4.8335 7.77072 4.8335 12.8333H6.8335ZM14.0576 22.2486C13.2828 21.8516 11.4425 20.8131 9.80883 19.186C8.17354 17.5573 6.8335 15.4307 6.8335 12.8333H4.8335C4.8335 16.165 6.55831 18.7713 8.39746 20.6031C10.2382 22.4365 12.282 23.5861 13.1456 24.0285L14.0576 22.2486ZM13.9428 22.2486C13.9551 22.2422 13.9753 22.236 14.0002 22.236C14.0251 22.236 14.0452 22.2422 14.0576 22.2486L13.1456 24.0285C13.6854 24.3051 14.3149 24.3051 14.8547 24.0285L13.9428 22.2486ZM16.5002 12.8333C16.5002 14.214 15.3809 15.3333 14.0002 15.3333V17.3333C16.4854 17.3333 18.5002 15.3186 18.5002 12.8333H16.5002ZM14.0002 10.3333C15.3809 10.3333 16.5002 11.4526 16.5002 12.8333H18.5002C18.5002 10.3481 16.4854 8.33333 14.0002 8.33333V10.3333ZM11.5002 12.8333C11.5002 11.4526 12.6195 10.3333 14.0002 10.3333V8.33333C11.5149 8.33333 9.50016 10.3481 9.50016 12.8333H11.5002ZM14.0002 15.3333C12.6195 15.3333 11.5002 14.214 11.5002 12.8333H9.50016C9.50016 15.3186 11.5149 17.3333 14.0002 17.3333V15.3333Z" fill="white"/>
</svg>
