<svg width="28" height="28" viewBox="0 0 28 28" fill="none" xmlns="http://www.w3.org/2000/svg">
<path d="M9.9375 11.1089C9.9375 10.0851 8.48993 9.81367 8.10588 10.7716C7.17689 13.0889 6.5 15.1619 6.5 16.2827C6.5 19.8545 9.57804 22.75 13.375 22.75C17.172 22.75 20.25 19.8545 20.25 16.2827C20.25 15.0786 19.4687 12.7753 18.4329 10.2509C17.091 6.98077 16.4201 5.3457 15.592 5.25763C15.3269 5.22945 15.0378 5.28012 14.8014 5.39618C14.0625 5.75888 14.0625 7.54221 14.0625 11.1089C14.0625 12.1804 13.1391 13.0491 12 13.0491C10.8609 13.0491 9.9375 12.1804 9.9375 11.1089Z" stroke="#FFF" stroke-width="2"/>
</svg>
