<svg width="28" height="28" viewBox="0 0 28 28" fill="none" xmlns="http://www.w3.org/2000/svg">
<path d="M14.3986 23.1385L14.8546 24.0285H14.8546L14.3986 23.1385ZM13.6014 23.1385L14.0574 22.2485L13.6014 23.1385ZM21.1667 12.8333C21.1667 15.4307 19.8266 17.5573 18.1913 19.186C16.5577 20.8131 14.7174 21.8516 13.9426 22.2485L14.8546 24.0285C15.7182 23.5861 17.7619 22.4364 19.6027 20.6031C21.4419 18.7713 23.1667 16.165 23.1667 12.8333H21.1667ZM14 5.66666C17.958 5.66666 21.1667 8.87528 21.1667 12.8333H23.1667C23.1667 7.77071 19.0626 3.66666 14 3.66666V5.66666ZM6.83333 12.8333C6.83333 8.87528 10.042 5.66666 14 5.66666V3.66666C8.93739 3.66666 4.83333 7.77071 4.83333 12.8333H6.83333ZM14.0574 22.2485C13.2826 21.8516 11.4423 20.8131 9.80866 19.186C8.17337 17.5573 6.83333 15.4307 6.83333 12.8333H4.83333C4.83333 16.165 6.55814 18.7713 8.3973 20.6031C10.2381 22.4364 12.2818 23.5861 13.1454 24.0285L14.0574 22.2485ZM13.9426 22.2485C13.955 22.2422 13.9751 22.2359 14 22.2359C14.0249 22.2359 14.045 22.2422 14.0574 22.2485L13.1454 24.0285C13.6852 24.3051 14.3148 24.3051 14.8546 24.0285L13.9426 22.2485ZM16.5 12.8333C16.5 14.214 15.3807 15.3333 14 15.3333V17.3333C16.4853 17.3333 18.5 15.3186 18.5 12.8333H16.5ZM14 10.3333C15.3807 10.3333 16.5 11.4526 16.5 12.8333H18.5C18.5 10.348 16.4853 8.33332 14 8.33332V10.3333ZM11.5 12.8333C11.5 11.4526 12.6193 10.3333 14 10.3333V8.33332C11.5147 8.33332 9.5 10.348 9.5 12.8333H11.5ZM14 15.3333C12.6193 15.3333 11.5 14.214 11.5 12.8333H9.5C9.5 15.3186 11.5147 17.3333 14 17.3333V15.3333Z" fill="#FFF"/>
</svg>
