<svg width="32" height="32" viewBox="0 0 32 32" fill="none" xmlns="http://www.w3.org/2000/svg">
<circle cx="16" cy="16" r="16" fill="#2F82E3"/>
<circle cx="16" cy="16" r="15.5" stroke="black" stroke-opacity="0.15"/>
<g clip-path="url(#clip0_347_4858)">
<path d="M13.2404 17.5795C13.2404 17.8953 12.9844 18.1513 12.6685 18.1513H12.0255C11.7097 18.1513 11.4536 17.8953 11.4536 17.5795C11.4536 17.2636 11.7097 17.0076 12.0255 17.0076H12.6685C12.9844 17.0076 13.2404 17.2636 13.2404 17.5795Z" fill="white"/>
<path d="M26.7299 18.6541C26.693 17.0389 26.3245 16.7123 24.9539 15.498C24.7982 15.3601 24.6272 15.2082 24.4392 15.0398C24.3146 14.928 24.1894 14.8079 24.0573 14.6814C23.8488 14.4826 23.6334 14.2773 23.3952 14.0772C23.2115 13.9234 23.0374 13.7766 22.8716 13.6374C20.741 11.8436 19.859 11.1008 17.6522 11.1008H13.7037C13.3878 11.1008 13.1318 11.3569 13.1318 11.6727C13.1318 11.9885 13.3878 12.2446 13.7037 12.2446H17.6522C19.4422 12.2446 20.0128 12.725 22.1351 14.5124C22.3016 14.6522 22.4763 14.7996 22.6606 14.954C22.8703 15.1301 23.0724 15.3226 23.2668 15.5088C23.3996 15.6359 23.5375 15.7668 23.6754 15.8907C23.8654 16.061 24.0382 16.2147 24.1958 16.3539C24.4989 16.6227 24.7346 16.8317 24.9183 17.0077H16.795C16.6724 16.9645 16.2212 16.6913 15.3723 15.8462C14.6981 15.1758 14.233 14.6052 14.1554 14.466C14.0303 14.1833 13.7017 14.0498 13.4145 14.1687C13.1222 14.2894 12.9831 14.6236 13.1038 14.9153C13.2678 15.3124 14.1586 16.2548 14.6066 16.6977C16.0776 18.1515 16.558 18.1515 16.7632 18.1515H25.5613C25.5759 18.2996 25.5816 18.4711 25.5861 18.6802C25.5931 18.9833 25.5899 19.6327 25.588 20.1073L25.5861 20.46C25.5848 20.6919 25.5836 20.9556 25.5836 21.2759C25.5836 21.3648 25.541 21.4506 25.4698 21.5231C25.1343 20.4143 24.103 19.6047 22.8862 19.6047C21.3986 19.6047 20.1888 20.8146 20.1888 22.3021C20.1888 23.7896 21.3986 25.0001 22.8862 25.0001C24.2123 25.0001 25.3173 24.0394 25.5423 22.7774C26.2355 22.5525 26.7273 21.9602 26.7273 21.2759C26.7273 20.9575 26.7286 20.6957 26.7299 20.4651L26.7318 20.1131C26.7337 19.632 26.7369 18.9731 26.7299 18.6541ZM24.4404 22.311C24.436 23.1637 23.7408 23.8563 22.8862 23.8563C22.0315 23.8563 21.3326 23.1593 21.3326 22.3021C21.3326 21.4449 22.0296 20.7485 22.8862 20.7485C23.7427 20.7485 24.4334 21.4386 24.4404 22.2894V22.311Z" fill="white"/>
<path d="M23.4592 22.3019C23.4592 22.6183 23.2032 22.8737 22.8874 22.8737C22.5716 22.8737 22.3142 22.6183 22.3142 22.3019C22.3142 21.9854 22.5696 21.73 22.8855 21.73H22.8874C23.2032 21.73 23.4592 21.9861 23.4592 22.3019Z" fill="white"/>
<path d="M18.3632 21.73H15.0616C14.7985 20.5164 13.7157 19.6045 12.4245 19.6045C11.2058 19.6045 10.1739 20.4166 9.84028 21.528C9.80215 21.4905 9.77356 21.4504 9.75386 21.4117C9.73162 21.3672 9.72018 21.3214 9.72018 21.2757V17.4625C9.72018 17.1467 9.4641 16.8906 9.1483 16.8906C8.83249 16.8906 8.57642 17.1467 8.57642 17.4625V21.2757C8.57642 21.5 8.62852 21.7173 8.73019 21.9213C8.93289 22.3292 9.31097 22.6355 9.76911 22.7804C9.99596 24.0404 11.1003 24.9999 12.4245 24.9999C13.7488 24.9999 14.7985 24.0881 15.0616 22.8738H18.3632C18.679 22.8738 18.9351 22.6177 18.9351 22.3019C18.9351 21.9861 18.679 21.73 18.3632 21.73ZM12.4245 23.8562C11.568 23.8562 10.8709 23.1597 10.8703 22.3032V22.2975C10.8735 21.4428 11.5693 20.7483 12.4245 20.7483C13.2798 20.7483 13.9788 21.4454 13.9788 22.3019C13.9788 23.1585 13.2817 23.8562 12.4245 23.8562Z" fill="white"/>
<path d="M12.9969 22.3019C12.9969 22.6183 12.7415 22.8737 12.4251 22.8737C12.1086 22.8737 11.8525 22.6183 11.8525 22.3019C11.8525 21.9854 12.108 21.73 12.4238 21.73H12.4251C12.7409 21.73 12.9969 21.9861 12.9969 22.3019Z" fill="white"/>
<path d="M8.87307 5.70532C8.739 5.53439 8.61191 5.37299 8.49563 5.2224C8.38697 5.08197 8.21986 5 8.04321 5H8.04257C7.86465 5 7.69754 5.08261 7.58952 5.22303C7.47006 5.37871 7.33852 5.54647 7.19873 5.72438C5.92534 7.35044 4 9.80699 4 11.8874C4 14.1164 5.8135 15.9306 8.04321 15.9306C10.2729 15.9306 12.0858 14.1164 12.0858 11.8874C12.0858 9.79746 10.1522 7.33455 8.87307 5.70532ZM8.04321 14.7868C6.44448 14.7868 5.14376 13.4861 5.14376 11.8874C5.14376 10.2886 6.86704 8.00302 8.04384 6.50087C9.2251 8.0062 10.942 10.2257 10.942 11.8874C10.942 13.549 9.6413 14.7868 8.04321 14.7868Z" fill="white"/>
<path d="M9.79836 11.8072C9.79836 12.775 9.01107 13.5623 8.04332 13.5623C7.72751 13.5623 7.47144 13.3062 7.47144 12.9904C7.47144 12.6746 7.72751 12.4185 8.04332 12.4185C8.38073 12.4185 8.6546 12.1446 8.6546 11.8072C8.6546 11.4914 8.91067 11.2354 9.22648 11.2354C9.54229 11.2354 9.79836 11.4914 9.79836 11.8072Z" fill="white"/>
</g>
<defs>
<clipPath id="clip0_347_4858">
<rect width="22.7342" height="20" fill="white" transform="translate(4 5)"/>
</clipPath>
</defs>
</svg>
