<svg width="32" height="32" viewBox="0 0 32 32" fill="none" xmlns="http://www.w3.org/2000/svg">
<circle cx="16" cy="16" r="16" fill="#FF993F"/>
<circle cx="16" cy="16" r="15.5" stroke="black" stroke-opacity="0.15"/>
<g clip-path="url(#clip0_347_4868)">
<path d="M14.4609 9.6875C14.8926 9.6875 15.2422 9.33789 15.2422 8.90625C15.2422 8.73047 15.5449 8.46055 15.8379 8.19961C16.4105 7.68945 17.1953 6.99062 17.1953 5.78125C17.1953 5.34961 16.8457 5 16.4141 5C15.9824 5 15.6328 5.34961 15.6328 5.78125C15.6328 6.26523 15.316 6.57227 14.7988 7.03281C14.3004 7.47695 13.6797 8.02969 13.6797 8.90625C13.6797 9.33789 14.0293 9.6875 14.4609 9.6875Z" fill="white"/>
<path d="M17.9766 9.6875C18.4082 9.6875 18.7578 9.33789 18.7578 8.90625C18.7578 8.73047 19.0605 8.46055 19.3535 8.19961C19.9266 7.68945 20.7109 6.99062 20.7109 5.78125C20.7109 5.34961 20.3613 5 19.9297 5C19.498 5 19.1484 5.34961 19.1484 5.78125C19.1484 6.26523 18.8316 6.57227 18.3145 7.03281C17.816 7.47695 17.1953 8.02969 17.1953 8.90625C17.1953 9.33789 17.5449 9.6875 17.9766 9.6875Z" fill="white"/>
<path d="M10.9453 9.6875C11.377 9.6875 11.7266 9.33789 11.7266 8.90625C11.7266 8.73047 12.0293 8.46055 12.3223 8.19961C12.8949 7.68945 13.6797 6.99062 13.6797 5.78125C13.6797 5.34961 13.3301 5 12.8984 5C12.4668 5 12.1172 5.34961 12.1172 5.78125C12.1172 6.26523 11.8004 6.57227 11.2832 7.03281C10.7848 7.47695 10.1641 8.02969 10.1641 8.90625C10.1641 9.33789 10.5137 9.6875 10.9453 9.6875Z" fill="white"/>
<path d="M26.775 13.8262C26.6281 13.6773 26.4281 13.5938 26.2188 13.5938H23.6121L23.9242 12.2023C23.9762 11.9707 23.9199 11.7285 23.7719 11.543C23.6234 11.3578 23.3992 11.25 23.1621 11.25H7.78125C7.54375 11.25 7.31875 11.3582 7.1707 11.5441C7.02266 11.7301 6.9668 11.973 7.01953 12.2047L8.69922 19.5863C9.04258 21.0957 9.89102 22.4605 11.0906 23.4379H7.78125C7.34961 23.4379 7 23.7875 7 24.2191C7 24.6508 7.34961 25.0004 7.78125 25.0004H23.1719C23.6035 25.0004 23.9531 24.6508 23.9531 24.2191C23.9531 23.7875 23.6035 23.4379 23.1719 23.4379H19.8777C20.0547 23.2934 20.2254 23.1395 20.3895 22.9766C20.6953 22.6723 20.6969 22.1777 20.393 21.8719C20.0887 21.566 19.5941 21.5645 19.2883 21.8684C18.2699 22.8809 16.9187 23.4383 15.4836 23.4383C12.9484 23.4383 10.7852 21.7121 10.223 19.2402L8.76016 12.8125H22.1863L20.748 19.2234C20.748 19.2234 20.7477 19.2266 20.7473 19.2285C20.7441 19.2438 20.7418 19.2598 20.7391 19.2754C20.7375 19.2863 20.7352 19.2977 20.734 19.3086C20.7328 19.3195 20.7324 19.3305 20.7316 19.3414C20.7305 19.3578 20.7293 19.3738 20.7293 19.3898C20.7293 19.3914 20.7293 19.393 20.7293 19.3945C20.7293 19.4012 20.7301 19.4078 20.7305 19.4145C20.7309 19.4324 20.7316 19.4504 20.7332 19.4684C20.734 19.4777 20.7355 19.4871 20.7371 19.4969C20.7391 19.5125 20.7414 19.5281 20.7441 19.5438C20.7465 19.5555 20.7496 19.5668 20.7523 19.5785C20.7555 19.5914 20.7582 19.6039 20.7621 19.6168C20.766 19.6301 20.7707 19.643 20.7754 19.6559C20.7793 19.6664 20.7828 19.677 20.7871 19.6875C20.7926 19.7012 20.7988 19.7141 20.8051 19.7273C20.8094 19.7367 20.8141 19.7465 20.8188 19.7559C20.8254 19.7688 20.8328 19.7809 20.8402 19.7934C20.8457 19.8027 20.8512 19.8121 20.857 19.8215C20.8645 19.8328 20.8723 19.8434 20.8801 19.8543C20.8871 19.8641 20.8941 19.8738 20.9016 19.8832C20.909 19.8926 20.9172 19.9016 20.925 19.9105C20.934 19.9207 20.9426 19.9305 20.952 19.9402C20.9598 19.948 20.9676 19.9555 20.9754 19.9629C20.9859 19.9727 20.9965 19.9824 21.0074 19.9918C21.0152 19.9984 21.0238 20.0047 21.032 20.0113C21.0434 20.0203 21.0551 20.0293 21.0672 20.0375C21.0762 20.0437 21.0859 20.0496 21.0953 20.0555C21.107 20.0629 21.1187 20.0703 21.1305 20.077C21.1418 20.0832 21.1535 20.0891 21.1652 20.0949C21.1758 20.1004 21.1863 20.1055 21.1973 20.1105C21.2117 20.1168 21.2266 20.1223 21.2414 20.1277C21.2504 20.1309 21.259 20.1348 21.2684 20.1375C21.2852 20.143 21.3027 20.1477 21.3203 20.152C21.327 20.1535 21.3332 20.1559 21.3398 20.1574C21.3414 20.1574 21.343 20.1578 21.3445 20.1582C21.3602 20.1617 21.3758 20.1641 21.3918 20.1664C21.4027 20.168 21.4141 20.1703 21.425 20.1715C21.4355 20.1727 21.4465 20.173 21.457 20.1738C21.4734 20.175 21.4898 20.1762 21.5062 20.1762C21.5078 20.1762 21.5094 20.1762 21.5109 20.1762C22.7211 20.1762 24.0734 19.6039 25.1289 18.6449C26.3328 17.5512 26.9965 16.1062 26.998 14.5758L27.0004 14.3855C27.0031 14.1766 26.9223 13.975 26.7754 13.8266L26.775 13.8262ZM22.5289 18.4223L23.2617 15.1562H25.3883C25.1242 16.7941 23.7855 17.9797 22.5289 18.4223Z" fill="white"/>
</g>
<defs>
<clipPath id="clip0_347_4868">
<rect width="20" height="20" fill="white" transform="translate(7 5)"/>
</clipPath>
</defs>
</svg>
