<svg width="44" height="44" viewBox="0 0 44 44" fill="none" xmlns="http://www.w3.org/2000/svg">
<circle cx="22" cy="22" r="22" fill="#F52E3A"/>
<circle cx="22" cy="22" r="21.5" stroke="black" stroke-opacity="0.15"/>
<path d="M13.5 19.8235C13.5 19.006 13.5 18.5973 13.6522 18.2297C13.8045 17.8622 14.0935 17.5731 14.6716 16.9951L16.5784 15.0882C17.1565 14.5102 17.4455 14.2211 17.8131 14.0689C18.1806 13.9167 18.5894 13.9167 19.4069 13.9167H24.5931C25.4106 13.9167 25.8194 13.9167 26.1869 14.0689C26.5545 14.2211 26.8435 14.5102 27.4216 15.0882L29.3284 16.9951C29.9065 17.5731 30.1955 17.8622 30.3478 18.2297C30.5 18.5973 30.5 19.006 30.5 19.8235V28.3333C30.5 30.2189 30.5 31.1617 29.9142 31.7475C29.3284 32.3333 28.3856 32.3333 26.5 32.3333H17.5C15.6144 32.3333 14.6716 32.3333 14.0858 31.7475C13.5 31.1617 13.5 30.2189 13.5 28.3333V19.8235Z" stroke="#F6F6F7" stroke-width="2"/>
<path d="M17.75 13.9167L13.6387 11.1758C13.5547 11.1198 13.4453 11.1198 13.3613 11.1758L9.50373 13.7475C9.37247 13.835 9.35408 14.0208 9.46563 14.1323L13.2066 17.8733C13.3945 18.0611 13.5 18.3159 13.5 18.5816V18.5816C13.5 19.1349 13.9485 19.5833 14.5017 19.5833H29.4983C30.0515 19.5833 30.5 19.1349 30.5 18.5816V18.5816C30.5 18.3159 30.6055 18.0611 30.7934 17.8733L34.5344 14.1323C34.6459 14.0208 34.6275 13.835 34.4963 13.7475L30.6387 11.1758C30.5547 11.1198 30.4453 11.1198 30.3613 11.1758L26.25 13.9167" stroke="#F6F6F7" stroke-width="2" stroke-linecap="round"/>
</svg>
