<svg width="20" height="20" viewBox="0 0 20 20" fill="none" xmlns="http://www.w3.org/2000/svg">
<path d="M7.94197 8.68723C7.91146 7.91075 7.91714 7.09875 7.93382 6.42186C8.52837 6.74586 9.23442 7.14694 9.89161 7.5616C10.3717 7.86449 10.809 8.16426 11.1522 8.43792C11.5222 8.73299 11.6883 8.9248 11.7316 8.99986C11.775 9.07493 11.858 9.31468 11.9286 9.78265C11.994 10.2167 12.0349 10.7453 12.0572 11.3125C12.0877 12.089 12.082 12.901 12.0653 13.5779C11.4708 13.2539 10.7647 12.8528 10.1076 12.4381C9.62751 12.1352 9.19014 11.8355 8.84697 11.5618C8.47696 11.2667 8.31087 11.0749 8.26753 10.9999C8.22419 10.9248 8.14112 10.6851 8.07059 10.2171C8.00518 9.78305 7.96426 9.2544 7.94197 8.68723Z" stroke="#00B929" stroke-width="2"/>
<circle cx="10" cy="10" r="9" stroke="#00B929" stroke-width="2"/>
</svg>
