<svg width="44" height="44" viewBox="0 0 44 44" fill="none" xmlns="http://www.w3.org/2000/svg">
    <circle cx="22" cy="22" r="22" fill="#D1D5DB" />
    <path
        d="M18.5967 18.7161C18.5967 20.0968 17.5222 21.2161 16.1967 21.2161C14.8712 21.2161 13.7967 20.0968 13.7967 18.7161C13.7967 17.3354 14.8712 16.2161 16.1967 16.2161C17.5222 16.2161 18.5967 17.3354 18.5967 18.7161Z"
        fill="#F6F6F7" />
    <path fill-rule="evenodd" clip-rule="evenodd"
        d="M10 14.5C10 13.1193 11.0745 12 12.4 12H31.6C32.9255 12 34 13.1193 34 14.5V29.5C34 30.8807 32.9255 32 31.6 32H30.0158C30.0105 32 30.0053 32 30 32H12.947C12.9425 32 12.9379 32 12.9334 32H12.4C11.0745 32 10 30.8807 10 29.5V14.5ZM12.4 13.875H31.6C31.9314 13.875 32.2 14.1548 32.2 14.5V22.2901L26.9857 17L18.1146 26L15.5014 23.3489L11.8 27.1041V14.5C11.8 14.1548 12.0686 13.875 12.4 13.875Z"
        fill="#F6F6F7" />
</svg>