<svg width="24" height="24" viewBox="0 0 24 24" fill="none" xmlns="http://www.w3.org/2000/svg">
<path fill-rule="evenodd" clip-rule="evenodd" d="M13.6546 3.74642C13.13 3.58601 12.5742 3.5 12 3.5C9.11839 3.5 6.69757 5.66673 6.37934 8.53075L6.16951 10.4193C6.07774 11.2451 5.80893 12.0415 5.38141 12.754L4.89971 13.5569L4.8859 13.5799L4.88589 13.5799C4.74641 13.8123 4.61982 14.0233 4.52679 14.2014C4.43346 14.3801 4.32244 14.6187 4.28457 14.8963C4.16295 15.7877 4.65153 16.6507 5.4785 17.005C5.73602 17.1154 5.99771 17.1429 6.19896 17.1548C6.39957 17.1667 6.64559 17.1667 6.91665 17.1667H6.91667H6.94355H17.0565H17.0834H17.0834C17.3545 17.1667 17.6005 17.1667 17.8011 17.1548C18.0023 17.1429 18.264 17.1154 18.5216 17.005C19.3485 16.6507 19.8371 15.7877 19.7155 14.8963C19.6776 14.6187 19.5666 14.3801 19.4733 14.2014C19.3802 14.0233 19.2537 13.8124 19.1142 13.58L19.1142 13.5799L19.1003 13.5569L18.6186 12.754C18.3893 12.3718 18.2056 11.9654 18.0705 11.5433C17.7267 11.624 17.3684 11.6667 17 11.6667C16.6572 11.6667 16.323 11.6297 16.0012 11.5595C16.1848 12.3411 16.4887 13.0914 16.9037 13.783L17.3853 14.5859C17.5431 14.8488 17.6383 15.0082 17.7005 15.1273C17.706 15.1379 17.7109 15.1475 17.7152 15.1561C17.7056 15.1569 17.6948 15.1576 17.6829 15.1583C17.5488 15.1662 17.3632 15.1667 17.0565 15.1667H6.94355C6.63686 15.1667 6.45126 15.1662 6.31715 15.1583C6.30524 15.1576 6.29449 15.1569 6.28483 15.1561C6.28917 15.1475 6.29406 15.1379 6.29958 15.1273C6.36178 15.0082 6.45691 14.8488 6.6147 14.5859L7.0964 13.783C7.6719 12.8239 8.03375 11.7519 8.15727 10.6401L8.36711 8.75161C8.57279 6.90046 10.1375 5.5 12 5.5C12.1919 5.5 12.3807 5.51487 12.5651 5.54357C12.7889 4.8617 13.1656 4.24914 13.6546 3.74642ZM16.3032 5.48554C15.7307 5.74937 15.3334 6.32828 15.3334 7C15.3334 7.92047 16.0796 8.66667 17 8.66667C17.2201 8.66667 17.4302 8.62402 17.6225 8.54655L17.6207 8.53075C17.4915 7.36796 17.0157 6.32011 16.3032 5.48554Z" fill="black"/>
<path d="M9.58519 16.7206C9.72762 17.5179 10.0415 18.2225 10.4781 18.7251C10.9147 19.2276 11.4497 19.5 12 19.5C12.5503 19.5 13.0853 19.2276 13.5219 18.7251C13.9585 18.2225 14.2724 17.5179 14.4148 16.7206" stroke="black" stroke-width="2" stroke-linecap="round"/>
<circle cx="18" cy="6" r="4.5" fill="#F52E3A" stroke="white"/>
</svg>
