<svg width="52" height="58" viewBox="0 0 52 58" fill="none" xmlns="http://www.w3.org/2000/svg">
    <circle cx="25.5859" cy="31.5254" r="25.4359" fill="#ABABAB" fill-opacity="0.3" stroke="#BEBEBE"
        stroke-width="0.3" />
    <path
        d="M29.2409 31.5255C29.2409 33.5441 27.6045 35.1806 25.5858 35.1806C23.5671 35.1806 21.9307 33.5441 21.9307 31.5255C21.9307 29.5068 23.5671 27.8703 25.5858 27.8703C27.6045 27.8703 29.2409 29.5068 29.2409 31.5255Z"
        fill="#85888B" />
    <path fill-rule="evenodd" clip-rule="evenodd"
        d="M31.0689 31.5254C31.0689 34.5534 28.6142 37.0081 25.5862 37.0081C22.5582 37.0081 20.1035 34.5534 20.1035 31.5254C20.1035 28.4974 22.5582 26.0427 25.5862 26.0427C28.6142 26.0427 31.0689 28.4974 31.0689 31.5254ZM25.5862 35.1805C27.6049 35.1805 29.2413 33.5441 29.2413 31.5254C29.2413 29.5067 27.6049 27.8703 25.5862 27.8703C23.5675 27.8703 21.9311 29.5067 21.9311 31.5254C21.9311 33.5441 23.5675 35.1805 25.5862 35.1805Z"
        fill="#FDFDFD" />
    <rect opacity="0.01" x="7.31055" width="36.5512" height="36.5512" fill="white" />
    <path
        d="M25.6065 35.3889C27.7111 35.3889 29.4172 33.6828 29.4172 31.5782C29.4172 29.4737 27.7111 27.7676 25.6065 27.7676C23.502 27.7676 21.7959 29.4737 21.7959 31.5782C21.7959 33.6828 23.502 35.3889 25.6065 35.3889Z"
        fill="#3E4958" />
    <path fill-rule="evenodd" clip-rule="evenodd"
        d="M25.6058 28.705C24.0189 28.705 22.7324 29.9915 22.7324 31.5784C22.7324 33.1654 24.0189 34.4519 25.6058 34.4519C27.1928 34.4519 28.4793 33.1654 28.4793 31.5784C28.4793 29.9915 27.1928 28.705 25.6058 28.705ZM20.8584 31.5784C20.8584 28.9562 22.9841 26.8305 25.6062 26.8305C28.2284 26.8305 30.3541 28.9562 30.3541 31.5784C30.3541 34.2006 28.2284 36.3263 25.6062 36.3263C22.9841 36.3263 20.8584 34.2006 20.8584 31.5784Z"
        fill="#FDFDFD" />
    <path fill-rule="evenodd" clip-rule="evenodd"
        d="M24.6826 20.0588H26.3822V30.9055H24.6826V20.0588Z" fill="#3E4958" />
    <path
        d="M25.6069 20.5275C31.0787 20.5275 35.5145 16.0918 35.5145 10.6199C35.5145 5.14802 31.0787 0.712204 25.6069 0.712204C20.135 0.712204 15.6992 5.14802 15.6992 10.6199C15.6992 16.0918 20.135 20.5275 25.6069 20.5275Z"
        fill="#00B929" />
    <path fill-rule="evenodd" clip-rule="evenodd"
        d="M25.607 1.18066C20.394 1.18066 16.168 5.40668 16.168 10.6197C16.168 15.8327 20.394 20.0588 25.607 20.0588C30.8201 20.0588 35.046 15.8327 35.046 10.6197C35.046 5.40668 30.8201 1.18066 25.607 1.18066ZM15.2305 10.6198C15.2305 4.88914 19.8761 0.24353 25.6067 0.24353C31.3374 0.24353 35.983 4.88914 35.983 10.6198C35.983 16.3505 31.3374 20.996 25.6067 20.996C19.8761 20.996 15.2305 16.3505 15.2305 10.6198Z"
        fill="#00B929" />
    <path
        d="M25.6071 13.6685C27.2907 13.6685 28.6556 12.3035 28.6556 10.6199C28.6556 8.93627 27.2907 7.57141 25.6071 7.57141C23.9235 7.57141 22.5586 8.93627 22.5586 10.6199C22.5586 12.3035 23.9235 13.6685 25.6071 13.6685Z"
        fill="#F9FFFF" />
</svg>