<svg width="10" height="10" viewBox="0 0 22 21" fill="none" xmlns="http://www.w3.org/2000/svg">
    <path
        d="M11.296 20.5268C16.7676 20.5268 21.2034 16.0912 21.2034 10.6195C21.2034 5.14785 16.7676 0.712189 11.296 0.712189C5.82437 0.712189 1.3887 5.14785 1.3887 10.6195C1.3887 16.0912 5.82437 20.5268 11.296 20.5268Z"
        fill="#00B929" />
    <path fill-rule="evenodd" clip-rule="evenodd"
        d="M11.2961 1.18063C6.08325 1.18063 1.85739 5.4065 1.85739 10.6194C1.85739 15.8322 6.08325 20.0581 11.2961 20.0581C16.509 20.0581 20.7348 15.8322 20.7348 10.6194C20.7348 5.4065 16.509 1.18063 11.2961 1.18063ZM0.919922 10.6195C0.919922 4.88899 5.56538 0.24353 11.2958 0.24353C17.0263 0.24353 21.6718 4.88899 21.6718 10.6195C21.6718 16.35 17.0263 20.9953 11.2958 20.9953C5.56538 20.9953 0.919922 16.35 0.919922 10.6195Z"
        fill="#00B929" />
    <path
        d="M11.2962 13.668C12.9797 13.668 14.3446 12.3031 14.3446 10.6196C14.3446 8.93598 12.9797 7.57117 11.2962 7.57117C9.61259 7.57117 8.24777 8.93598 8.24777 10.6196C8.24777 12.3031 9.61259 13.668 11.2962 13.668Z"
        fill="#F9FFFF" />
</svg>